<?xml version="1.0" standalone="no"?><!DOCTYPE svg PUBLIC "-//W3C//DTD SVG 1.1//EN" "http://www.w3.org/Graphics/SVG/1.1/DTD/svg11.dtd"><svg t="1488507303862" class="icon" style="" viewBox="0 0 1024 1024" version="1.1" xmlns="http://www.w3.org/2000/svg" p-id="1777" xmlns:xlink="http://www.w3.org/1999/xlink" width="16" height="16"><defs><style type="text/css"></style></defs><path d="M783.516904 444.884416 485.550605 802.417369 268.159436 616.07331 304.558437 573.606103 478.888881 723.019041 740.507344 409.038Z" p-id="1778"></path><path d="M174.445054 747.793284c0 85.364203 63.578014 154.826228 141.748375 154.826228l388.007011 0c78.17036 0 141.748375-69.462025 141.748375-154.826228l0-389.848962c0-75.683726-50.019207-138.750087-115.828029-152.104233 3.591805 26.053376 3.919263 47.061852 3.919263 53.242622l27.977191 0 0 55.964616-503.640612 0 0-55.964616 27.987425 0c0-6.180769 0.317225-27.189246 3.919263-53.242622-65.819055 13.354146-115.838262 76.420507-115.838262 152.104233L174.445054 747.793284zM901.913431 357.944322l0 389.848962c0 116.237351-88.689948 210.780611-197.712991 210.780611l-388.007011 0c-109.023042 0-197.712991-94.54326-197.712991-210.780611l0-389.848962c0-111.693872 81.956593-203.095581 185.085392-210.094996 14.889105-44.237527 42.61047-84.627423 94.717222-84.627423l223.837998 0c52.096519 0 79.817883 40.389896 94.706989 84.627423C819.956837 154.848741 901.913431 246.25045 901.913431 357.944322zM678.075433 259.08271c-0.092098-45.670156-13.886265-139.89619-55.954383-139.89619l-223.837998 0c-42.078351 0-55.872518 94.226035-55.964616 139.89619L678.075433 259.08271z" p-id="1779"></path></svg>