<?xml version="1.0" standalone="no"?><!DOCTYPE svg PUBLIC "-//W3C//DTD SVG 1.1//EN" "http://www.w3.org/Graphics/SVG/1.1/DTD/svg11.dtd"><svg t="1488507263279" class="icon" style="" viewBox="0 0 1024 1024" version="1.1" xmlns="http://www.w3.org/2000/svg" p-id="1044" xmlns:xlink="http://www.w3.org/1999/xlink" width="16" height="16"><defs><style type="text/css"></style></defs><path d="M293.49 52.01l401.98 0c42.549 0 95.204 13.62 123.203 58.101 27.995 44.482 31.375 106.892 31.375 174.47l0 27.57-47.918 0 0-27.57c0-43.625 1.763-99.37-16.353-128.165-18.129-28.767-52.114-49.658-79.563-49.658L286.894 106.758c-26.847 0-59.38 19.432-77.38 46.983-0.397 0.721-0.81 1.422-1.24 2.107l0-0.018c-18.131 28.795-21.444 85.123-21.444 128.75L186.83 739.42c0 42.668 3.861 93.203 21.22 121.82 0.453 0.615 0.866 1.254 1.298 1.928l-0.056 0.07 0 0c18.112 28.744 51.336 50.59 78.827 50.59l412.725 0c27.37 0 58.431-23.473 76.546-52.119l0.151-0.25 0.021 0 0.034 0.07c18.09-28.771 24.535-78.428 24.535-122.111l0-27.551 47.916 0 0 27.551c0 67.463-7.374 122.811-35.374 167.316l-24.322-30.537 24.322 30.688-0.511 0.813c-27.958 44.008-76.408 64.293-118.692 64.293L293.49 971.991c-42.455 0-92.997-18.896-121.017-63.398l26.21-29.979-26.321 29.998c-0.526-0.875-1.052-1.75-1.545-2.684-27.07-44.268-32.904-100.293-32.904-166.51L137.913 284.581c0-67.578 5.396-125.988 33.373-170.47l0-0.017c0.564-0.879 1.13-1.714 1.735-2.505C200.886 68.59 251.84 52.01 293.49 52.01L293.49 52.01 293.49 52.01z" p-id="1045"></path><path d="M319.513 295.002c-15.082 0-27.322 15.912-27.322 35.519 0 19.615 12.241 35.528 27.322 35.528l325.35 0c15.1 0 27.337-15.913 27.337-35.528 0-19.607-12.239-35.519-27.337-35.519L319.513 295.002 319.513 295.002 319.513 295.002z" p-id="1046"></path><path d="M316.609 478.167c-15.081 0-27.316 16.172-27.316 36.122 0 19.948 12.235 36.12 27.316 36.12l231.377 0c15.084 0 27.324-16.172 27.324-36.12 0-19.949-12.24-36.122-27.324-36.122L316.609 478.167 316.609 478.167 316.609 478.167z" p-id="1047"></path><path d="M318.065 664.262c-15.083 0-27.322 16.166-27.322 36.107s12.238 36.109 27.322 36.109l134.486 0c15.083 0 27.317-16.168 27.317-36.109s-12.234-36.107-27.317-36.107L318.065 664.262 318.065 664.262 318.065 664.262z" p-id="1048"></path><path d="M637.856 602.924l292.1-269.41c0 0 40.342-12.361 62.48 13.195 22.14 25.556 7.715 62.762 7.715 62.762L708.068 678.877 637.856 602.924z" p-id="1049"></path><path d="M622.952 616.754 692.821 693.004 575.31 731.391Z" p-id="1050"></path></svg>